<svg height='100px' width='100px'  fill="#FFFFFF" xmlns="http://www.w3.org/2000/svg" xmlns:xlink="http://www.w3.org/1999/xlink" version="1.1" x="0px" y="0px" viewBox="0 0 100 100" style="enable-background:new 0 0 100 100;" xml:space="preserve"><g><path d="M40.766,39.159c0,5.658-4.246,10.246-9.483,10.246c-5.238,0-9.484-4.588-9.484-10.246   C21.799,33.5,40.766,33.5,40.766,39.159z M59.234,39.159c0,5.658,4.246,10.246,9.483,10.246s9.483-4.588,9.483-10.246   C78.201,33.5,59.234,33.5,59.234,39.159z M100,10.311C100,93.106,50,100,50,100S0,92.574,0,10.311L50,0L100,10.311z M88.82,42.688   V31.953c0,0-14.035-6.836-20.361-6.836C59.786,25.117,50,31.953,50,31.953s-9.133-6.836-18.458-6.836   c-6.262,0-20.361,6.836-20.361,6.836v10.735c0,10.997,9.116,18.547,20.361,18.547c8.171,0,12.241-10.135,18.458-10.135   c6.217,0,10.288,10.135,18.459,10.135C79.704,61.235,88.82,53.686,88.82,42.688z"></path></g></svg>